<?xml version="1.0" encoding="UTF-8"?>
<svg id="Layer_1" data-name="Layer 1" xmlns="http://www.w3.org/2000/svg" viewBox="0 0 1080 1080">
  <defs>
    <style>
      .cls-1 {
        fill: #f68d43;
      }

      .cls-2 {
        fill: #d6e0f2;
        fill-rule: evenodd;
      }
    </style>
  </defs>
  <path class="cls-2" d="m582.54,986.84c43.37-15.98,61.59-56.11,81.79-85.89,29.08-42.86,57.19-85.78,85.88-128.08,86.24-127.09,256.81-262.28,214.71-417.37-8.71-32.08-24.75-57.65-40.89-87.4-13.21-24.32-53.44-48.08-81.79-64.79-199.77-117.76-581.2-87.62-689.12,97.94-32.28,55.49-19.23,131.65,0,188.35,17,50.12,72.37,141.11,108.38,185.33,19.6,24.08,274.48,329.06,321.04,311.9Z"/>
  <path class="cls-1" d="m486.13,528.94c-4.76,8.13-16.57,37.94-24.23,57.17-7.91,19.87-16.54,39.56-22.48,60.12-.5,1.72,3.75.03,5.33-.81,2.92-1.53,5.33-3.88,7.76-6.1,4.11-3.75,7.67-8.07,11.82-11.76,17.58-15.64,64.7-56.92,86.14-69.54,12.74-7.5,31.03,21.62,34.26,25.95,22.85,30.68,47.48,68.35,73.69,96.52.99,1.06,2.38-2.06,2.56-3.5.62-4.74.13-9.57-.24-14.33-.83-10.35-1.25-20.79-3.37-30.95-.44-2.12-19.08-69.82-21.22-83.29-.96-6.06-3.08-12.82-.56-18.42,2.93-6.53,9.89-10.44,15.51-14.88,25.33-20.02,52.99-36.92,79.97-54.65,2.49-1.63,31.53-14.66,29.06-23.88-2.45-9.14-26.32-6.44-30.1-6.23-49.01,2.85-50.28,1.89-97.57,15.57-13.35,3.86-25.74,11.18-39.44,13.5-2.21.37-1.69-4.26-1.75-6.52-.07-3.22.65-6.44,1.37-9.59,1.25-5.42,3.18-10.67,4.54-16.07,6.73-26.95,13.17-53.96,19.72-80.95,1.1-4.55,5.89-20.83,3.12-25.95-1-1.86-4.29.79-5.98,2.04-3.42,2.53-6.27,5.78-9.02,9.02-4.61,5.44-9.34,10.86-13.02,16.96-15.21,25.2-29.7,50.85-43.59,76.8-.61,1.15-10.89,30.06-13.49,31.14-6.43,2.64-13.8-1.75-20.59-3.25-21.81-4.84-62.22-16.6-84.16-20.74-7.2-1.35-17.36-7.72-21.88-1.96-4.14,5.28,5.61,12.28,9.53,17.72,8.33,11.56,17.87,22.19,27.05,33.06,13.59,16.08,38.03,40.07,41.26,47.82"/>
</svg>